<svg xmlns="http://www.w3.org/2000/svg" style="display:none;">

	<svg id="docs-icon-tag-2" width="24" height="24" viewBox="0 0 24 24"><path fill="#757575" d="M21.707 13.293l-11-11A.997.997 0 0 0 10 2H3a1 1 0 0 0-1 1v7c0 .266.105.519.293.707l11 11a1 1 0 0 0 1.636-.336l1.841-4.602 4.602-1.841a.999.999 0 0 0 .335-1.635zM7 9a2 2 0 1 1-.001-3.999A2 2 0 0 1 7 9z"/></svg>

	<svg id="docs-icon-pen-brush" width="24" height="24" viewBox="0 0 24 24"><g fill="#767676"><path d="M6.146 9.917l1.653 1.745 2.828-2.827-1.74-1.658a2.983 2.983 0 0 0-.856-2.358c-2.268-2.269-3.433.309-5.976-2.233 0 0-.535 4.207 1.732 6.474a2.984 2.984 0 0 0 2.359.857zm16.19-.589L20.67 7.662l.634-.634a2.135 2.135 0 0 0 0-3.021 2.135 2.135 0 0 0-3.021 0l-2.049 2.048 3.981 3.981-2.122 2.122 1.414 1.414 2.829-2.828a1.001 1.001 0 0 0 0-1.416z"/><path d="M17.841 10.491L14.82 7.468l-9.61 9.61a1.02 1.02 0 0 0-.188.26l-1.608 3.215a1 1 0 0 0 1.342 1.342l3.214-1.607a.96.96 0 0 0 .26-.188l9.611-9.609zm-1.373 4.205l-2.828 2.828 3.877 3.89a2 2 0 1 0 2.828-2.828l-3.877-3.89z"/></g></svg>

	<svg id="docs-icon-cloud-upload-2" width="24" height="24" viewBox="0 0 24 24"><path d="M13 0c-2.51 0-4.74 1.31-5.978 3.357.965.458 1.996 1.263 2.97 2.647l-.817.576C7.678 4.454 6.393 4 5 4 2.243 4 0 6.243 0 9s2.243 5 5 5h8c3.859 0 7-3.14 7-7 0-3.859-3.141-7-7-7zm10.707 19.292L19 14.585l-4.707 4.707 1.414 1.414L18 18.413V24h2v-5.587l2.293 2.293z" fill="#757575"/></svg>

	<svg id="docs-icon-sign-no-entry" width="24" height="24" viewBox="0 0 24 24"><path d="M15.012 7.171V3h-2v6.171zm-3 3V1h-2v10h-1V3h-2v12h-1v-4h-2v4c0 .936.2 1.821.534 2.637l7.466-7.466zm8.293-5.464L2.819 22.192l1.414 1.414 2.829-2.829A7 7 0 0 0 18.012 15V9.828l3.707-3.707-1.414-1.414z" fill="#757575"/></svg>

	<svg id="docs-icon-window-application-7" width="24" height="24" viewBox="0 0 24 24"><path d="M22 7.002V5c0-1.103-.896-2-2-2H4c-1.103 0-2 .897-2 2v2.002h20zM8 4a1 1 0 1 1 0 2 1 1 0 1 1 0-2zM5 4a1 1 0 1 1 0 2 1 1 0 1 1 0-2zm4 4.002H2V19c0 1.103.897 2 2 2h5V8.002zm-5 3.001h2v2H4v-2zm3 8H5v-2h2v2zm-2-3v-2h2v2H5zm6-8.001V21h9c1.104 0 2-.897 2-2V8.002H11zm9 11.001h-7v-3h7v3zm0-5h-7v-3h7v3z" fill="#757575"/></svg>

	<svg id="docs-icon-interface-information" width="24" height="24" viewBox="0 0 24 24"><path fill="#757575" d="M12 2C6.486 2 2 6.487 2 12c0 5.515 4.486 10 10 10s10-4.485 10-10c0-5.513-4.486-10-10-10zm0 4.751a1.25 1.25 0 1 1 0 2.5 1.25 1.25 0 0 1 0-2.5zM15 17H9v-2h2v-3h-1v-2h2a1 1 0 0 1 1 1v4h2v2z"/></svg>

	<svg id="docs-icon-space-rocket" width="24" height="24" viewBox="0 0 24 24"><path d="M22 2a.998.998 0 0 0-.97-.257c-2.641.72-3.226.816-4.784 1.552l4.458 4.459c.733-1.552.83-2.133 1.553-4.783A1.001 1.001 0 0 0 22 2zm-9.689 4.032l-7.27 7.271 5.657 5.656 7.271-7.269c.649-.65 1.206-1.375 1.712-2.131L14.442 4.32c-.757.507-1.482 1.063-2.131 1.712zM3.626 16.131c-1.171 1.172-1.414 5.657-1.414 5.657s4.485-.243 5.657-1.415c.546-.545.827-1.25.864-1.964L5.59 15.268a2.974 2.974 0 0 0-1.964.863zm4.606-7.07H3.626l-1.414 1.414 2.303 2.302zm5.293 12.727l1.415-1.414v-4.586l-3.707 3.707z" fill="#757575"/></svg>

	<svg id="docs-icon-content-view-array" width="24" height="24" viewBox="0 0 24 24"><path d="M16.5 3.001h-9c-.827 0-1.5.673-1.5 1.5v15c0 .827.673 1.5 1.5 1.5h9c.827 0 1.5-.673 1.5-1.5v-15c0-.827-.673-1.5-1.5-1.5zm-14.5 4v10c0 1.103.897 2 2 2h1v-14H4c-1.103 0-2 .897-2 2zm18-2h-1v14h1c1.104 0 2-.897 2-2v-10c0-1.103-.896-2-2-2z" fill="#757575"/></svg>

	<svg id="docs-icon-modules-1" width="24" height="24" viewBox="0 0 24 24"><g fill="#757575"><ellipse cx="12" cy="8.5" rx="3" ry="1.5"/><ellipse cx="6" cy="6.5" rx="3" ry="1.5"/><ellipse cx="18" cy="6.5" rx="3" ry="1.5"/><ellipse cx="12" cy="4.5" rx="3" ry="1.5"/><path d="M11 11.612L3.317 9.051a.999.999 0 0 0-.901.139A.997.997 0 0 0 2 10v8a1 1 0 0 0 .684.949L11 21.72V11.612zM21.585 9.19a1 1 0 0 0-.901-.139L13 11.612V21.72l8.316-2.771A1 1 0 0 0 22 18v-8a.996.996 0 0 0-.415-.81z"/></g></svg>

	<svg id="docs-icon-programming-jigsaw" width="24" height="24" viewBox="0 0 24 24"><path fill="#757575" d="M22.708 11.294l-2.879-2.88a1.031 1.031 0 0 0-1.414 0A2.003 2.003 0 0 1 15 7c0-.534.208-1.036.586-1.414a.998.998 0 0 0 0-1.413l-2.879-2.878a1.027 1.027 0 0 0-1.414 0L9.102 3.484A3.957 3.957 0 0 0 6.001 2 4.005 4.005 0 0 0 2 6c0 1.239.562 2.363 1.485 3.102l-2.192 2.192a1 1 0 0 0 0 1.414l2.879 2.878a.997.997 0 0 0 1.414 0A2.003 2.003 0 0 1 9.001 17c0 .534-.208 1.036-.586 1.414a1 1 0 0 0 0 1.414l2.879 2.879a.997.997 0 0 0 1.413.001l2.192-2.192A3.957 3.957 0 0 0 18 22c2.206 0 4-1.794 4-4a3.959 3.959 0 0 0-1.484-3.102l2.191-2.191a.999.999 0 0 0 .001-1.413z"/></svg>

	<svg id="docs-icon-expand-horizontal-7" width="24" height="24" viewBox="0 0 24 24"><path d="M12 19.585l-5.293-5.293-1.414 1.414L12 22.413l6.707-6.707-1.414-1.414zm0-18L5.293 8.292l1.414 1.414L12 4.413l5.293 5.293 1.414-1.414z" fill="#757575"/></svg>

	<svg id="docs-icon-spelling-check-1" width="24" height="24" viewBox="0 0 24 24"><path d="M4.61 10h4.78l1.154 3H9v2h5v-2h-1.313L7.934.641a1.001 1.001 0 0 0-1.868 0L1.313 13H0v2h5v-2H3.456l1.154-3zM7 3.786L8.621 8H5.379L7 3.786zm15 7.8l-9 9-3-3L8.586 19 13 23.414 23.414 13z" fill="#757575"/></svg>

	<svg id="docs-icon-credit-card" width="24" height="24" viewBox="0 0 24 24"><path d="M2 18.001c0 1.103.897 2 2 2h16c1.104 0 2-.897 2-2v-8H2v8zm13-6h4v2h-4v-2zm-10 0h7v2H5v-2zm0 3h5v2H5v-2zm15-11H4c-1.103 0-2 .897-2 2v2h20v-2c0-1.103-.896-2-2-2z" fill="#757575"/></svg>

	<svg id="docs-icon-calendar-1" width="24" height="24" viewBox="0 0 24 24"><path fill="#757575" d="M21 3h-2V1h-2v5h-2V3H9V1H7v5H5V3H3c-1.103 0-2 .898-2 2v15c0 1.102.897 2 2 2h18c1.103 0 2-.898 2-2V5c0-1.103-.897-2-2-2zM8 19H4v-4h4v4zm0-6H4V9h4v4zm6 6h-4v-4h4v4zm0-6h-4V9h4v4zm6 0h-4V9h4v4z"/></svg>

	<svg id="docs-icon-chat-bubble-square-question-mark" width="24" height="24" viewBox="0 0 24 24"><g fill="#757575"><path d="M14.998 7h-13c-1.104 0-2 .897-2 2v9c0 1.103.896 2 2 2h1v4l5.334-4h6.666c1.104 0 2-.897 2-2V9c0-1.103-.896-2-2-2zm5-7c-2.206 0-4 1.794-4 4h2c0-1.102.898-2 2-2 1.103 0 2 .898 2 2s-.897 2-2 2h-1v3h2V7.873a4.005 4.005 0 0 0 3-3.873c0-2.206-1.794-4-4-4z"/><circle cx="19.998" cy="11" r="1"/></g></svg>

	<svg id="docs-icon-pencil-fill" width="24" height="24" viewBox="0 0 24 24"><g fill="#757575"><path d="M23 12h-4.344l-5.035 5.035-7.07 1.414L7.841 12H1a1 1 0 0 0-1 1v8a1 1 0 0 0 1 1h22a1 1 0 0 0 1-1v-8a1 1 0 0 0-1-1z"/><path d="M9.808 12.365l2.828 2.827-3.535.707zm10.606-4.951a2 2 0 1 0-2.828-2.828l-6.364 6.364 2.829 2.829 6.363-6.365z"/></g></svg>

	<svg id="docs-icon-file-images-svg" width="24" height="24" viewBox="0 0 24 24"><path fill="#757575" d="M16.414 1H5c-1.103 0-2 .898-2 2v18c0 1.103.897 2 2 2h14c1.103 0 2-.897 2-2V5.586L16.414 1zM9 15.5H6.375a.376.376 0 0 0 0 .75h.75c1.034 0 1.875.842 1.875 1.875A1.877 1.877 0 0 1 7.125 20H4.5v-1.5h2.625a.376.376 0 0 0 0-.75h-.75A1.876 1.876 0 0 1 4.5 15.875C4.5 14.842 5.341 14 6.375 14H9v1.5zm3.766 4.5h-1.543L9.75 14h1.5l.739 2.926.718-2.926h1.543l-1.5 5.941.016.059zm6.734-4.5h-3v3H18v-.75h-.75v-1.5h2.25v2.25c0 .827-.673 1.5-1.5 1.5h-1.5c-.827 0-1.5-.673-1.5-1.5v-3c0-.827.673-1.5 1.5-1.5h3v1.5zM15 7V2l5 5h-5z"/></svg>

	<svg id="docs-icon-cursor-touch-1" width="24" height="24" viewBox="0 0 24 24"><g fill="#757575"><path d="M19.196 14.021L15 13.182v-4.18a1 1 0 0 0-1-1h-2a1 1 0 0 0-1 1v5H9a1.001 1.001 0 0 0-.895 1.448l3 6a1 1 0 0 0 .894.553h7a1 1 0 0 0 1-1v-6a.998.998 0 0 0-.803-.982z"/><path d="M18 2.001H6c-1.103 0-2 .898-2 2v7c0 1.102.897 2 2 2h3v-2H6v-7h12v7h2v-7c0-1.102-.896-2-2-2z"/></g></svg>

	<svg id="docs-icon-navigation-drawer-2" width="24" height="24" viewBox="0 0 24 24"><path class="a" d="M5 16h14v3H5zm0-5h14v3H5zm0-5h14v3H5z"/></svg>

	<svg id="docs-icon-paragraph-normal" width="24" height="24" viewBox="0 0 24 24"><path fill="#757575" d="M20 2H4c-1.103 0-2 .897-2 2v16c0 1.103.897 2 2 2h16c1.103 0 2-.897 2-2V4c0-1.103-.897-2-2-2zm-5 15H6v-2h9v2zm3-4H6v-2h12v2zm0-4H6V7h12v2z"/></svg>

	<svg id="docs-icon-video-control-fast-forward" width="24" height="24" viewBox="0 0 24 24"><g fill="#757575"><path d="M21.2 11.403L10.8 3.602c-.44-.33-.8-.149-.8.4v2.75l7 5.25-7 5.25v2.75c0 .55.36.73.8.4l10.4-7.801c.44-.328.44-.869 0-1.198z"/><path d="M13.2 11.403L2.8 3.602c-.44-.329-.8-.149-.8.401v16c0 .55.36.73.8.4l10.4-7.801c.44-.329.44-.87 0-1.199z"/></g></svg>

	<svg id="docs-icon-chat-bubble-square-alert-2" width="24" height="24" viewBox="0 0 24 24"><g fill="#757575"><path d="M14.998 7h-13c-1.103 0-2 .897-2 2v9c0 1.103.897 2 2 2h1v4l5.334-4h6.666c1.104 0 2-.897 2-2V9c0-1.103-.896-2-2-2zm5-5h2v6h-2z"/><circle cx="20.998" cy="10" r="1"/></g></svg>

	<svg id="docs-icon-grid" width="24" height="24" viewBox="0 0 24 24"><g fill="#767676"><path d="M20 2H4c-1.103 0-2 .898-2 2v16c0 1.103.897 2 2 2h16c1.103 0 2-.897 2-2V4c0-1.102-.897-2-2-2zm0 7h-3v6h3v2h-3v3h-2v-3H9v3H7v-3H4v-2h3V9H4V7h3V4h2v3h6V4h2v3h3v2z"/><path d="M9 9h6v6H9z"/></g></svg>

	<svg id="docs-icon-video-control-fast-forward" width="24" height="24" viewBox="0 0 24 24"><g fill="#757575"><path d="M21.2 11.403L10.8 3.602c-.44-.33-.8-.149-.8.4v2.75l7 5.25-7 5.25v2.75c0 .55.36.73.8.4l10.4-7.801c.44-.328.44-.869 0-1.198z"/><path d="M13.2 11.403L2.8 3.602c-.44-.329-.8-.149-.8.401v16c0 .55.36.73.8.4l10.4-7.801c.44-.329.44-.87 0-1.199z"/></g></svg>

	<svg id="docs-icon-romance-find-love" width="24" height="24" viewBox="0 0 24 24"><path d="M14.291 15.706l1.414-1.414 6.001 5.999-1.414 1.414zM8.999 1.998A7 7 0 1 0 9 15.999 7 7 0 0 0 9 1.998zm0 10s-3-3-3-4.5a1.5 1.5 0 0 1 3 0 1.5 1.5 0 0 1 3 0c0 1.5-3 4.5-3 4.5z" fill="#757575"/></svg>

	<svg id="docs-icon-interface-loading" width="24" height="24" viewBox="0 0 24 24"><path fill="#757575" d="M11 2h2v5h-2zM8.867 4.571l1.5 2.598-1.732 1-1.5-2.598zM5.572 7.134l2.598 1.5-1 1.732-2.598-1.5zM4.001 11h3v2h-3zm3.17 2.633l1 1.732-2.6 1.5-.999-1.732zm1.465 2.197l1.732.999-1.5 2.598-1.732-1zm2.366 1.167h2v3h-2zm4.365-1.17l1.5 2.597-1.733 1-1.499-2.598zm1.463-2.196l2.598 1.502-1 1.73-2.598-1.5zm.169-2.634h3v2h-3zm1.427-3.866l1 1.732-2.6 1.5-1-1.732zM15.132 4.57l1.732 1-1.5 2.598-1.732-1z"/></svg>

	<svg id="docs-icon-window-application-6" width="24" height="24" viewBox="0 0 24 24"><path d="M9 8.002H2V19c0 1.103.897 2 2 2h5V8.002zM7 19.003H4v-2h3v2zm0-3H4v-2h3v2zm-3-3v-2h3v2H4zm18-6.001V5c0-1.103-.896-2-2-2H4c-1.103 0-2 .897-2 2v2.002h20zM8 4a1 1 0 1 1 0 2 1 1 0 1 1 0-2zM5 4a1 1 0 1 1 0 2 1 1 0 1 1 0-2zm6 4.002V21h9c1.104 0 2-.897 2-2V8.002H11zm4 10.001h-2v-3h2v3zm5 1h-4v-4h4v4zm0-6h-7v-2h7v2z" fill="#757575"/></svg>

	<svg id="docs-icon-video-games-space-invaders-1" width="24" height="24" viewBox="0 0 24 24"><g fill="#757575"><path d="M6.998 19.998h4v2h-4zm6 0h4v2h-4zm3-17h2v2h-2zm-10 0h2v2h-2z"/><path d="M19.998 10.998v-2h-2v-2h-2v-2h-2v2h-4v-2h-2v2h-2v2h-2v2h-2v9h2v-4h1v4h2v-2h10v2h2v-4h1v4h2v-9h-2zm-10 3h-2v-2h2v2zm6 0h-2v-2h2v2z"/></g></svg>

	<svg id="docs-icon-spelling-check-1" width="24" height="24" viewBox="0 0 24 24"><path d="M4.61 10h4.78l1.154 3H9v2h5v-2h-1.313L7.934.641a1.001 1.001 0 0 0-1.868 0L1.313 13H0v2h5v-2H3.456l1.154-3zM7 3.786L8.621 8H5.379L7 3.786zm15 7.8l-9 9-3-3L8.586 19 13 23.414 23.414 13z" fill="#757575"/></svg>

	<svg id="docs-icon-paint-palette" width="24" height="24" viewBox="0 0 24 24"><path fill="#767676" d="M12 2C6.477 2 2 6.477 2 12s4.477 10 10 10c.465 0 .922-.031 1.37-.093a2 2 0 0 0 1.141-3.396l-1.097-1.098a2.001 2.001 0 0 1-.434-2.18A2.001 2.001 0 0 1 14.828 14H20a2 2 0 0 0 2-2c0-5.523-4.478-10-10-10zM7 12a2 2 0 1 1 .001-4.001A2 2 0 0 1 7 12zm5-4a2 2 0 1 1 .001-4.001A2 2 0 0 1 12 8zm5 4a2 2 0 1 1 .001-4.001A2 2 0 0 1 17 12z"/></svg>

	<svg id="docs-icon-time-bomb" width="24" height="24" viewBox="0 0 24 24"><g fill="#757575"><path d="M15 18.314V22h-1v-3.301c-.635.19-1.303.303-2 .303s-1.365-.113-2-.303V22H9v-3.686a7.027 7.027 0 0 1-2.74-2.312H6V22H5v-5.998H3v5a1 1 0 0 0 1 1h14v-6h-.26A7.004 7.004 0 0 1 15 18.314zm4 3.688h1a1 1 0 0 0 1-1v-5h-2v6zM5 2H4a1 1 0 0 0-1 1v5.002h2V2zm4 3.689V2H6v6.002h.26A7.023 7.023 0 0 1 9 5.689zm10 2.313h2V3a1 1 0 0 0-1-1h-5v3.689a7.023 7.023 0 0 1 2.74 2.313H18V2.003h1v5.999zm-5-2.699V2h-4v3.303c.635-.19 1.303-.303 2-.303s1.365.113 2 .303zM21 9h-2.684A6.96 6.96 0 0 1 19 12.002 6.952 6.952 0 0 1 18.318 15H21a1 1 0 0 0 1-1v-4a1 1 0 0 0-1-1zM5.682 15A6.952 6.952 0 0 1 5 12.002c0-1.075.25-2.091.684-3.002H3a1 1 0 0 0-1 1v4a1 1 0 0 0 1 1h2.682z"/><path d="M12 6a6.002 6.002 0 0 0 0 12.002A6.002 6.002 0 0 0 12 6zm3 7.002h-4v-5h2v3h2v2z"/></g></svg>

	<svg id="docs-icon-user-target" width="24" height="24" viewBox="0 0 24 24"><path fill="#757575" d="M20.942 11a9.011 9.011 0 0 0-7.941-7.94V1h-2v2.06A9.011 9.011 0 0 0 3.06 11H1.001v2H3.06a9.013 9.013 0 0 0 7.941 7.941V23h2v-2.059A9.014 9.014 0 0 0 20.942 13h2.059v-2h-2.059zM11.95 8a2 2 0 1 1-.001 4.001A2 2 0 0 1 11.95 8zm-3 8c0-1.841 1.159-3 3-3s3 1.159 3 3h-6z"/></svg>

	<svg id="docs-icon-font-size" width="24" height="24" viewBox="0 0 24 24"><path d="M22.687 22L17.934 9.641a1.001 1.001 0 0 0-1.868 0l-2.127 5.531L15.002 19h4.388l1.154 3H19v2h5v-2h-1.313zm-7.308-5L17 12.786 18.621 17h-3.242zM8.963 4.732a.999.999 0 0 0-.938-.731c-.472-.027-.835.266-.974.683L1.279 22H0v2h5v-2H3.388l1-3h6.463l.833 3H10v2h5v-2h-1.24L8.963 4.732zM5.054 17l2.859-8.577L10.295 17H5.054z" fill="#757575"/></svg>

	<svg id="docs-icon-devices" width="24" height="24" viewBox="0 0 24 24"><g fill="#757575"><path d="M12 19.001H4v-14h12v3h2v-4a2 2 0 0 0-2-2H4a2 2 0 0 0-2 2v16a2 2 0 0 0 2 2h8v-3z"/><path d="M22 12.001a2 2 0 0 0-2-2h-4a2 2 0 0 0-2 2v8a2 2 0 0 0 2 2h4a2 2 0 0 0 2-2v-8zm-2 7h-4v-7h4v7z"/></g></svg>

	<svg id="docs-icon-window-application-6" width="24" height="24" viewBox="0 0 24 24"><path d="M9 8.002H2V19c0 1.103.897 2 2 2h5V8.002zM7 19.003H4v-2h3v2zm0-3H4v-2h3v2zm-3-3v-2h3v2H4zm18-6.001V5c0-1.103-.896-2-2-2H4c-1.103 0-2 .897-2 2v2.002h20zM8 4a1 1 0 1 1 0 2 1 1 0 1 1 0-2zM5 4a1 1 0 1 1 0 2 1 1 0 1 1 0-2zm6 4.002V21h9c1.104 0 2-.897 2-2V8.002H11zm4 10.001h-2v-3h2v3zm5 1h-4v-4h4v4zm0-6h-7v-2h7v2z" fill="#757575"/></svg>

	<svg id="docs-icon-focus-2" width="24" height="24" viewBox="0 0 24 24"><path d="M3 5h3V3H3c-1.104 0-2 .897-2 2v3h2V5zm18-2h-3v2h3v3h2V5c0-1.103-.896-2-2-2zM3 16H1v3a2 2 0 0 0 2 2h3v-2H3v-3zm18 3h-3v2h3a2 2 0 0 0 2-2v-3h-2v3zM5 7h14v10H5z" fill="#757575"/></svg>

</svg>
