<svg xmlns="http://www.w3.org/2000/svg">

	<svg id="icon-1" width="24" height="24" viewBox="0 0 24 24"><path d="M13 0c-2.51 0-4.74 1.31-5.978 3.357.965.458 1.996 1.263 2.97 2.647l-.817.576C7.678 4.454 6.393 4 5 4 2.243 4 0 6.243 0 9s2.243 5 5 5h8c3.859 0 7-3.14 7-7 0-3.859-3.141-7-7-7zm10.707 19.292L19 14.585l-4.707 4.707 1.414 1.414L18 18.413V24h2v-5.587l2.293 2.293z" fill="#757575"/></svg>

	<svg id="icon-2" width="24" height="24" viewBox="0 0 24 24"><path d="M15.012 7.171V3h-2v6.171zm-3 3V1h-2v10h-1V3h-2v12h-1v-4h-2v4c0 .936.2 1.821.534 2.637l7.466-7.466zm8.293-5.464L2.819 22.192l1.414 1.414 2.829-2.829A7 7 0 0 0 18.012 15V9.828l3.707-3.707-1.414-1.414z" fill="#757575"/></svg>

	<svg id="icon-3" width="24" height="24" viewBox="0 0 24 24"><path d="M22 7.002V5c0-1.103-.896-2-2-2H4c-1.103 0-2 .897-2 2v2.002h20zM8 4a1 1 0 1 1 0 2 1 1 0 1 1 0-2zM5 4a1 1 0 1 1 0 2 1 1 0 1 1 0-2zm4 4.002H2V19c0 1.103.897 2 2 2h5V8.002zm-5 3.001h2v2H4v-2zm3 8H5v-2h2v2zm-2-3v-2h2v2H5zm6-8.001V21h9c1.104 0 2-.897 2-2V8.002H11zm9 11.001h-7v-3h7v3zm0-5h-7v-3h7v3z" fill="#757575"/></svg>

</svg>
